<svg width="394" height="394" viewBox="0 0 394 394" fill="none" xmlns="http://www.w3.org/2000/svg">
<path d="M285.733 264.677C285.251 264.621 284.772 264.539 284.299 264.433" stroke="#CCDDE2" stroke-width="2.05274" stroke-miterlimit="10"/>
<path d="M92.8733 113.673C92.8733 113.673 77.2236 36.185 148.27 21.0751C152.452 20.1711 156.717 19.7102 160.996 19.7001C174.577 19.7001 187.059 24.7157 197.5 34.7942C203.548 40.6451 207.716 47.7962 212.22 54.6676C215.045 59.0016 218.023 63.2174 221.676 66.9683C231.77 77.3344 245.446 81.7433 258.743 86.6683C270.437 90.9747 281.832 95.6869 290.216 105.186C300.886 117.258 311.886 129.981 317.524 145.319C319.865 151.743 321.65 158.357 322.859 165.086C325.912 181.831 326.035 198.935 322.331 215.573C318.328 233.583 307.871 250.541 294.121 262.747" stroke="#CCDDE2" stroke-width="2.05274" stroke-miterlimit="10"/>
<path d="M297.667 240.698L293.81 262.27C293.703 262.875 293.385 263.422 292.914 263.817C292.443 264.211 291.848 264.426 291.233 264.425H271.072C270.452 264.425 269.852 264.205 269.379 263.804C268.905 263.403 268.59 262.847 268.488 262.235L264.942 240.698H297.667Z" stroke="#CCDDE2" stroke-width="2.05274" stroke-miterlimit="10"/>
<path d="M301.335 238.291C301.282 238.947 300.983 239.559 300.499 240.005C300.015 240.451 299.381 240.699 298.723 240.699H263.941C263.29 240.699 262.663 240.457 262.182 240.02C261.7 239.582 261.399 238.982 261.336 238.335C261.3 237.971 261.341 237.604 261.456 237.257C261.57 236.911 261.756 236.592 262.002 236.321C262.247 236.051 262.546 235.835 262.88 235.686C263.214 235.539 263.575 235.462 263.941 235.462H298.723C299.084 235.463 299.442 235.538 299.773 235.683C300.104 235.829 300.402 236.041 300.647 236.306C300.892 236.572 301.08 236.885 301.198 237.227C301.317 237.569 301.363 237.931 301.335 238.291Z" stroke="#CCDDE2" stroke-width="2.05274" stroke-miterlimit="10"/>
<path d="M282.419 235.458C282.419 234.355 285.228 220.593 282.899 208.387C281.623 201.689 278.798 195.467 273.12 192.059" stroke="#CCDDE2" stroke-width="2.05274" stroke-miterlimit="10"/>
<path d="M282.892 208.387C282.892 208.387 283.534 199.116 291.56 198.474" stroke="#CCDDE2" stroke-width="2.05274" stroke-miterlimit="10"/>
<path d="M283.751 222.535C286.032 220.938 288.779 220.145 291.56 220.281" stroke="#CCDDE2" stroke-width="2.05274" stroke-miterlimit="10"/>
<path d="M283.751 215.951C283.751 215.951 277.932 209.056 268.63 214.509" stroke="#CCDDE2" stroke-width="2.05274" stroke-miterlimit="10"/>
<path d="M279.653 213.178C279.653 213.178 266.545 201.2 263.98 217.393C263.98 217.393 267.668 219.801 273.121 217.393C278.574 214.986 279.653 213.178 279.653 213.178Z" stroke="#CCDDE2" stroke-width="2.05274" stroke-miterlimit="10"/>
<path d="M285.784 201.299C285.784 201.299 285.308 195.909 291.56 194.143C297.813 192.378 301.343 199.758 301.343 199.758C301.343 199.758 296.525 205.085 285.784 201.299Z" stroke="#CCDDE2" stroke-width="2.05274" stroke-miterlimit="10"/>
<path d="M287.227 220.274C287.227 220.274 287.014 214.825 294.283 215.94C301.553 217.055 302.731 223.264 302.731 223.264C302.731 223.264 290.82 227.63 287.227 220.837" stroke="#CCDDE2" stroke-width="2.05274" stroke-miterlimit="10"/>
<path d="M278.472 197.098C278.472 197.492 273.003 196.61 272.656 196.507C270.009 195.719 268.129 193.883 266.892 191.456C266.498 190.704 264.307 186.484 264.922 185.751C264.93 185.751 277.936 181.567 278.472 197.098Z" stroke="#CCDDE2" stroke-width="2.05274" stroke-miterlimit="10"/>
<path d="M243.385 135.721L231.841 148.625H223.921L211.924 156.288C209.455 155.844 206.92 155.921 204.482 156.514C202.044 157.107 199.757 158.203 197.768 159.732C192.523 163.672 176.365 179.644 168.17 181.402C166.2 176.701 163.667 172.213 162.26 170.22L219.587 142.64L222.215 135.721L238.838 129.023L243.385 135.721Z" fill="#D7E8F0"/>
<path d="M158.514 264.488L134.413 264.307C126.156 264.25 118.072 261.934 111.037 257.609C115.984 257.603 120.917 257.075 125.753 256.033C126.088 256.033 126.435 256.033 126.781 256.033C132.431 255.793 137.419 251.967 140.697 247.365C143.975 242.763 145.957 237.377 148.372 232.251C150.788 227.125 153.845 222.066 158.589 218.969C159.042 218.67 159.511 218.398 159.98 218.138C167.138 217.679 174.317 217.639 181.48 218.02C175.09 221.034 152.71 233.815 158.514 264.488Z" fill="#FCF095"/>
<path d="M185.11 201.247C185.11 201.247 182.746 208.446 190.252 211.267C197.757 214.088 197.076 211.156 197.068 216.18C197.068 216.18 198.581 218.355 195.46 218.426C192.34 218.497 179.87 216.542 175.146 217.165C170.422 217.787 161.75 217.405 170.181 214.927C178.613 212.449 184.117 208.363 185.11 201.247Z" fill="#FCF095"/>
<path d="M141.017 176.303C142.454 176.704 143.738 177.527 144.701 178.667C146.458 180.637 149.33 182.922 149.783 188.864C150.237 194.805 152.671 196.649 153.207 197.162C153.743 197.674 153.349 199.526 149.835 199.199C146.32 198.872 136.084 197.268 136.537 185.255C136.537 185.239 136.23 178.376 141.017 176.303Z" fill="#2E2E2E"/>
<path d="M126.659 256.289C121.822 257.331 116.89 257.859 111.943 257.865C111.88 257.818 111.805 257.79 111.746 257.743C107.616 257.639 103.502 257.195 99.4452 256.415C83.2006 253.314 40.5146 184.94 76.7784 163.786C76.7784 163.786 77.8816 163.451 79.7846 162.998C81.857 165.626 84.7411 167.679 88.5196 168.935C87.0708 170.204 85.8187 171.68 84.8041 173.317C81.9752 177.852 81.2818 183.411 81.463 188.761C81.8255 200.093 85.7537 211.034 90.8166 221.188C96.5887 232.779 104.114 243.839 114.63 251.396C118.2 253.933 122.305 256.139 126.659 256.289Z" fill="#D7E8F0"/>
<path d="M99.2009 109.276C99.2009 109.276 99.0039 110.229 101.478 110.407C103.953 110.584 114.453 111.061 115.587 122.621C116.722 134.181 110.639 148.743 114.2 149.618C117.762 150.492 125.493 152.533 127.778 151.115C130.063 149.696 142.75 141.56 156.989 147.064C156.989 147.064 159.235 149.263 159.29 143.046C159.345 136.828 160.161 126.765 155.878 128.144C151.595 129.523 148.786 127.195 147.545 132.644C146.304 138.093 135.362 133.365 135.362 133.365C135.362 133.365 128.475 127.656 124.744 116.624C121.013 105.592 111.502 105.789 108.405 106.234C105.308 106.679 99.2009 109.276 99.2009 109.276Z" fill="#2E2E2E"/>
<path d="M261.982 350.66C259.291 349.194 259.35 347.114 257.825 345.282L255.607 349.974C255.403 351.081 255.527 352.223 255.964 353.259C256.402 354.296 257.134 355.181 258.07 355.806L279.188 373.579C279.819 374.004 280.554 374.25 281.313 374.289C282.073 374.329 282.829 374.161 283.501 373.804C284.173 373.447 284.735 372.915 285.128 372.263C285.52 371.611 285.728 370.865 285.728 370.104C285.73 369.645 285.655 369.19 285.504 368.756L243.57 244.138C242.413 240.692 240.586 237.509 238.195 234.771C235.805 232.032 232.897 229.793 229.639 228.181C217.882 222.35 194.242 214.97 162.111 217.78" stroke="black" stroke-width="2.05274" stroke-linecap="round" stroke-linejoin="round"/>
<path d="M257.826 345.294C243.031 325.074 221.578 291.528 217.445 278.621C213.111 265.174 200.96 264.646 189.219 264.933L135.32 264.539C126.985 264.488 118.828 262.135 111.747 257.739" stroke="black" stroke-width="2.05274" stroke-linecap="round" stroke-linejoin="round"/>
<path d="M227.39 227.109C227.299 215.778 227.358 192.831 227.417 174.707C227.464 159.416 209.967 150.5 197.757 159.735C192.454 163.723 186.575 167.82 180.212 174.739" stroke="black" stroke-width="2.05274" stroke-linecap="round" stroke-linejoin="round"/>
<path d="M199.041 200.424C199.041 200.424 195.818 209.462 197.394 218.694" stroke="black" stroke-width="2.05274" stroke-linecap="round" stroke-linejoin="round"/>
<path d="M152.755 146.359H152.711C140.836 144.212 132.223 147.671 126.345 152.147" stroke="black" stroke-width="2.05274" stroke-linecap="round" stroke-linejoin="round"/>
<path d="M79.7854 162.982C77.8824 163.447 76.7792 163.77 76.7792 163.77C40.5312 184.924 83.2014 253.299 99.446 256.399C103.503 257.179 107.617 257.624 111.747 257.727C121.431 257.999 127.779 256.321 127.779 256.321" stroke="black" stroke-width="2.05274" stroke-linecap="round" stroke-linejoin="round"/>
<path d="M105.489 181.914L127.777 228.756L132.592 222.334L112.337 181.914H105.489Z" stroke="black" stroke-width="2.05274" stroke-linecap="round" stroke-linejoin="round"/>
<path d="M117.306 191.827L138.081 181.839V181.823L144.7 178.651" stroke="black" stroke-width="2.05274" stroke-linecap="round" stroke-linejoin="round"/>
<path d="M211.913 156.288L223.926 148.625H231.845L243.389 135.721L238.842 129.027L222.22 135.721L219.576 142.628L162.245 170.22" stroke="black" stroke-width="2.05274" stroke-linecap="round" stroke-linejoin="round"/>
<path d="M169.104 182.17L180.211 174.735" stroke="black" stroke-width="2.05274" stroke-linecap="round" stroke-linejoin="round"/>
<path d="M151.032 194.258L144.961 198.324L126.691 210.55" stroke="black" stroke-width="2.05274" stroke-linecap="round" stroke-linejoin="round"/>
<path d="M170.842 158.431C170.554 149.291 166.791 140.102 163.092 131.868C162.447 130.429 161.73 129.023 160.944 127.656" stroke="black" stroke-width="2.05274" stroke-linecap="round" stroke-linejoin="round"/>
<path d="M144.96 112.617C148.148 121.896 152.545 139.271 139.11 135.075C120.986 129.409 130.422 101.636 105.49 106.652C105.436 106.667 105.38 106.677 105.324 106.679C105.314 106.676 105.303 106.676 105.293 106.679H105.261" stroke="black" stroke-width="2.05274" stroke-linecap="round" stroke-linejoin="round"/>
<path d="M97.1486 110.742C106.924 109.217 123.35 111.482 112.333 148.609" stroke="black" stroke-width="2.05274" stroke-linecap="round" stroke-linejoin="round"/>
<path d="M158.723 147.793C159.859 141.268 159.623 134.577 158.029 128.148" stroke="black" stroke-width="2.05274" stroke-linecap="round" stroke-linejoin="round"/>
<path d="M196.953 212.405C196.953 212.405 183.628 212.137 184.29 204.431" stroke="black" stroke-width="2.05274" stroke-linecap="round" stroke-linejoin="round"/>
<path d="M184.066 217.555C184.066 217.555 152.664 229.024 159.425 264.717" stroke="black" stroke-width="2.05274" stroke-linecap="round" stroke-linejoin="round"/>
<path d="M141.017 176.303C139.178 177.551 137.814 179.384 137.148 181.504C136.235 184.624 136.42 187.963 137.671 190.964C138.922 193.964 141.164 196.445 144.024 197.993C146.699 199.352 149.693 199.593 152.38 198.415C152.86 198.201 153.316 197.936 153.74 197.627" stroke="black" stroke-width="2.05274" stroke-linecap="round" stroke-linejoin="round"/>
<path d="M180.207 174.735C181.747 178.332 183.013 182.039 183.998 185.826C184.044 185.955 184.079 186.086 184.104 186.22C184.258 186.811 184.392 187.402 184.53 188.017C184.679 188.73 184.829 189.423 184.967 190.133C184.998 190.361 185.042 190.586 185.073 190.814C185.08 190.855 185.08 190.896 185.073 190.936C185.101 191.102 185.132 191.267 185.164 191.449C185.191 191.736 185.239 192.04 185.298 192.355C185.29 192.39 185.29 192.426 185.298 192.461" stroke="black" stroke-width="2.05274" stroke-linecap="round" stroke-linejoin="round"/>
<path d="M135.359 154.448C140.087 149.933 146.316 146.276 152.695 146.351H152.738C153.239 146.351 153.767 146.379 154.267 146.442C158.526 146.895 162.147 149.72 165.205 152.71C168.77 156.191 171.929 160.065 174.621 164.259" stroke="black" stroke-width="2.05274" stroke-linecap="round" stroke-linejoin="round"/>
<path d="M185.094 190.814C185.1 190.854 185.1 190.896 185.094 190.936C185.121 191.102 185.153 191.267 185.184 191.449C185.819 196.48 185.787 201.121 183.628 205.774C181.8 209.714 177.718 212.197 173.806 213.69C169.015 215.522 163.786 216.412 159.496 219.206C154.768 222.303 151.698 227.366 149.279 232.488C146.86 237.61 144.898 242.992 141.604 247.601C138.31 252.211 133.33 256.033 127.688 256.269C122.96 256.451 118.468 254.122 114.615 251.36C104.099 243.803 96.5738 232.744 90.8017 221.152C85.7388 210.999 81.8106 200.057 81.4481 188.726C81.2669 183.375 81.9603 177.816 84.7892 173.281C85.8038 171.645 87.0559 170.168 88.5046 168.9" stroke="black" stroke-width="2.05274" stroke-linecap="round" stroke-linejoin="round"/>
<path d="M159.424 264.717H63.5558" stroke="black" stroke-width="2.05274" stroke-linecap="round" stroke-linejoin="round"/>
<path d="M307.975 264.717H250.553" stroke="black" stroke-width="2.05274" stroke-linecap="round" stroke-linejoin="round"/>
<path d="M181.449 86.6248V110.052C181.454 112.331 180.779 114.561 179.512 116.455C178.245 118.35 176.442 119.824 174.333 120.69C168.727 122.975 161.304 125.544 149.031 125.981V109.276C152.364 110.611 156.209 109.76 158.881 107.353C159.452 106.841 160.011 106.344 160.535 105.907C162.588 104.13 164.255 102.984 165.094 103.303C166.835 103.945 167.064 103.945 168.136 98.3029C168.924 94.2408 175.495 89.7492 177.079 82.2829C177.406 80.7293 177.496 79.1352 177.347 77.5549C177.16 75.6168 176.697 73.7157 175.972 71.9089C174.92 69.206 173.458 66.6809 171.638 64.4229L175.046 67.9137C175.362 68.2447 175.665 68.5717 175.945 68.9145C180.125 73.7922 181.449 80.0804 181.449 86.6248Z" fill="#FCF095"/>
<path d="M177.241 81.3689C177.202 81.6841 177.142 81.9914 177.083 82.2829C176.327 82.2317 174.164 82.5351 171.682 83.9732C169.945 84.974 168.413 86.2931 167.166 87.862C165.271 90.226 156.17 100.537 148.617 109.063L145.819 112.215C145.408 112.679 144.901 113.047 144.332 113.293C143.764 113.54 143.148 113.66 142.528 113.643C141.909 113.626 141.301 113.474 140.746 113.198C140.192 112.921 139.704 112.527 139.318 112.042L120.733 88.7564C119.509 87.2079 118.922 85.2505 119.092 83.2837C119.262 81.3172 120.176 79.4895 121.648 78.1735L138.412 63.2015L139.082 62.646C139.409 62.4056 139.736 62.1732 140.059 61.9486C150.536 55.3215 160.839 56.015 168.427 61.1251L171.65 64.4308C173.47 66.6892 174.932 69.214 175.984 71.9168C177.399 75.5298 177.655 78.6424 177.241 81.3689Z" fill="#FCF095"/>
<path d="M171.642 64.4348L168.419 61.1292L168.238 60.944C168.266 60.9562 168.291 60.9735 168.313 60.9952L168.616 61.2631C169.682 62.2 170.666 63.2256 171.559 64.3284C171.583 64.3639 171.619 64.3993 171.642 64.4348Z" fill="#FCF095"/>
<path d="M170.602 62.7682C170.63 62.78 170.656 62.7973 170.677 62.8194C171.858 63.8288 172.945 64.9446 173.923 66.1526C173.947 66.1881 173.986 66.2236 174.01 66.259L170.602 62.7682Z" fill="#FCF095"/>
<path d="M140.709 117.995C142.679 115.769 145.527 112.57 148.589 109.079C156.169 100.553 165.271 90.2261 167.166 87.8621C171.106 82.9962 175.877 82.1924 177.083 82.2673" stroke="black" stroke-width="2.05274" stroke-linecap="round" stroke-linejoin="round"/>
<path d="M148.605 109.079C148.739 109.152 148.877 109.217 149.018 109.276C152.351 110.612 156.197 109.761 158.868 107.353C161.677 104.824 164.026 102.901 165.082 103.303C166.823 103.945 167.052 103.945 168.123 98.3031C168.911 94.2409 175.483 89.7493 177.067 82.283C177.686 79.3359 177.54 75.9317 175.96 71.9169C174.906 69.2144 173.445 66.6901 171.626 64.4309C171.598 64.3954 171.563 64.36 171.539 64.3245C170.561 63.1169 169.474 62.0011 168.293 60.9913C168.271 60.9696 168.245 60.9523 168.218 60.94C159.92 53.8993 147.466 52.6345 135.082 61.925C134.862 62.0984 134.645 62.2796 134.436 62.4609L117.676 77.4329C116.204 78.7461 115.29 80.5719 115.12 82.5368C114.95 84.502 115.537 86.4575 116.761 88.0039L140.689 117.975" stroke="black" stroke-width="2.05274" stroke-linecap="round" stroke-linejoin="round"/>
<path d="M166.165 89.2883C166.165 89.2883 167.835 89.0401 169.51 90.561" stroke="black" stroke-width="2.05274" stroke-linecap="round" stroke-linejoin="round"/>
<path d="M165.912 93.2562C166.565 92.495 166.707 91.5458 166.23 91.1361C165.753 90.7267 164.837 91.012 164.183 91.7732C163.53 92.5344 163.387 93.4835 163.865 93.8933C164.342 94.3026 165.259 94.0174 165.912 93.2562Z" fill="black"/>
<path d="M168.238 60.944L171.646 64.4348L175.05 67.9257C179.928 72.9255 181.449 79.6314 181.449 86.6249V112.995C181.454 115.275 180.779 117.504 179.512 119.399C178.245 121.293 176.442 122.767 174.333 123.633C168.727 125.919 161.304 128.487 149.031 128.925V109.276" stroke="black" stroke-width="2.05274" stroke-linecap="round" stroke-linejoin="round"/>
<path d="M160.532 105.903C160.532 105.903 157.801 106.821 156.986 103.173" stroke="black" stroke-width="2.05274" stroke-linecap="round" stroke-linejoin="round"/>
<path d="M126.769 100.537L123.436 104.564C123.143 104.915 122.769 105.189 122.346 105.36C121.922 105.532 121.463 105.597 121.009 105.549C118.731 105.328 116.45 105.226 114.177 105.226C79.8003 105.226 57.2241 167.497 95.2885 170.204C132.596 172.848 147.423 171.217 150.054 190.601C150.673 195.168 153.439 199.663 158.62 197.918C165.074 195.755 169.167 187.958 168.143 181.402C167.099 174.735 162.068 169.16 156.973 165.11C146.958 157.178 134.7 153.81 122.4 151.32C118.412 150.532 105.733 149.476 109.752 142.628" stroke="black" stroke-width="2.05274" stroke-linecap="round" stroke-linejoin="round"/>
<path d="M163.928 208.883H162.848V207.544H163.928C164.294 207.544 164.644 207.398 164.903 207.14C165.162 206.881 165.307 206.53 165.307 206.165V196.973L174.983 192.828V203.072C174.983 203.803 174.693 204.505 174.176 205.022C173.658 205.539 172.957 205.83 172.225 205.83H170.961V204.486H172.225C172.6 204.486 172.96 204.337 173.226 204.072C173.491 203.806 173.64 203.447 173.64 203.072V194.857L166.662 197.859V206.165C166.662 206.523 166.59 206.877 166.453 207.208C166.315 207.539 166.113 207.839 165.859 208.091C165.605 208.344 165.304 208.544 164.973 208.68C164.641 208.816 164.286 208.885 163.928 208.883Z" fill="#D7E8F0"/>
<path d="M162.143 209.667C162.946 209.667 163.597 209.016 163.597 208.213C163.597 207.41 162.946 206.759 162.143 206.759C161.34 206.759 160.689 207.41 160.689 208.213C160.689 209.016 161.34 209.667 162.143 209.667Z" fill="#D7E8F0"/>
<path d="M171 206.763C171.803 206.763 172.454 206.112 172.454 205.309C172.454 204.506 171.803 203.856 171 203.856C170.197 203.856 169.546 204.506 169.546 205.309C169.546 206.112 170.197 206.763 171 206.763Z" fill="#D7E8F0"/>
<g opacity="0.54">
<path opacity="0.54" d="M252.593 126.34L250.918 127.041L250.043 124.957L251.722 124.256C252.29 124.017 252.741 123.563 252.974 122.993C253.208 122.422 253.205 121.783 252.967 121.214L246.604 106.017L248.33 106.045C248.621 106.045 255.508 106.23 259.795 111.955L257.986 113.31C255.599 110.131 252.183 108.976 250.106 108.559L255.047 120.379C255.505 121.495 255.504 122.747 255.044 123.863C254.585 124.979 253.704 125.869 252.593 126.34Z" fill="#FCF095"/>
<path opacity="0.54" d="M249.382 128.909C250.733 128.909 251.828 127.813 251.828 126.462C251.828 125.111 250.733 124.015 249.382 124.015C248.03 124.015 246.935 125.111 246.935 126.462C246.935 127.813 248.03 128.909 249.382 128.909Z" fill="#FCF095"/>
</g>
<g opacity="0.46">
<path opacity="0.46" d="M196.212 140.213H194.388V137.947H196.212C196.831 137.946 197.424 137.7 197.86 137.263C198.298 136.826 198.544 136.233 198.545 135.615V120.072L214.908 113.078V130.414C214.906 131.649 214.414 132.833 213.54 133.706C212.666 134.579 211.482 135.07 210.247 135.071H208.107V132.778H210.247C210.561 132.778 210.872 132.716 211.162 132.596C211.452 132.476 211.716 132.3 211.938 132.077C212.16 131.855 212.336 131.592 212.456 131.302C212.576 131.011 212.638 130.7 212.638 130.386V116.494L200.818 121.569V135.615C200.818 136.219 200.698 136.817 200.466 137.376C200.235 137.934 199.895 138.441 199.468 138.868C199.04 139.295 198.532 139.633 197.974 139.864C197.415 140.095 196.817 140.213 196.212 140.213Z" fill="#FCF095"/>
<path opacity="0.46" d="M193.186 141.533C194.542 141.533 195.641 140.433 195.641 139.078C195.641 137.722 194.542 136.623 193.186 136.623C191.83 136.623 190.731 137.722 190.731 139.078C190.731 140.433 191.83 141.533 193.186 141.533Z" fill="#FCF095"/>
<path opacity="0.46" d="M208.17 136.623C209.526 136.623 210.625 135.525 210.625 134.169C210.625 132.813 209.526 131.714 208.17 131.714C206.815 131.714 205.716 132.813 205.716 134.169C205.716 135.525 206.815 136.623 208.17 136.623Z" fill="#FCF095"/>
</g>
<path d="M268.799 158.443L268.05 159.326L266.955 158.388L267.704 157.505C267.83 157.358 267.925 157.186 267.985 157.001C268.045 156.817 268.067 156.622 268.051 156.428C268.035 156.235 267.982 156.046 267.893 155.873C267.805 155.7 267.682 155.547 267.534 155.421L260.017 149.038L263.346 138.239L271.726 145.354C272.324 145.863 272.695 146.587 272.759 147.368C272.823 148.149 272.576 148.924 272.069 149.523L271.187 150.559L270.091 149.625L270.97 148.593C271.099 148.441 271.197 148.266 271.258 148.076C271.32 147.886 271.343 147.686 271.327 147.488C271.311 147.289 271.256 147.096 271.165 146.918C271.074 146.741 270.949 146.583 270.797 146.454L264.099 140.749L261.691 148.554L268.484 154.322C268.776 154.572 269.015 154.877 269.189 155.219C269.363 155.561 269.467 155.934 269.496 156.317C269.526 156.7 269.479 157.085 269.36 157.45C269.24 157.815 269.05 158.152 268.799 158.443Z" fill="#FCF095"/>
<path d="M267.009 160.996C267.869 160.996 268.565 160.299 268.565 159.44C268.565 158.58 267.869 157.884 267.009 157.884C266.15 157.884 265.453 158.58 265.453 159.44C265.453 160.299 266.15 160.996 267.009 160.996Z" fill="#FCF095"/>
<path d="M270.788 151.729C271.647 151.729 272.344 151.033 272.344 150.173C272.344 149.314 271.647 148.617 270.788 148.617C269.928 148.617 269.231 149.314 269.231 150.173C269.231 151.033 269.928 151.729 270.788 151.729Z" fill="#FCF095"/>
<path d="M298.033 181.086L295.846 180.353L296.76 177.631L298.947 178.368C299.314 178.491 299.702 178.541 300.089 178.515C300.476 178.489 300.854 178.387 301.201 178.214C301.548 178.042 301.858 177.803 302.113 177.511C302.368 177.219 302.562 176.879 302.686 176.512L308.959 157.868L331.417 156.059L324.423 176.851C323.921 178.335 322.851 179.559 321.447 180.254C320.044 180.949 318.421 181.058 316.937 180.558L314.412 179.696L315.326 176.973L317.895 177.84C318.656 178.094 319.487 178.036 320.206 177.68C320.925 177.323 321.474 176.696 321.732 175.937L327.339 159.271L311.09 160.579L305.421 177.43C305.175 178.155 304.79 178.825 304.287 179.401C303.783 179.978 303.17 180.449 302.484 180.788C301.798 181.128 301.052 181.329 300.288 181.38C299.524 181.431 298.758 181.331 298.033 181.086Z" fill="#FCF095"/>
<path d="M294.866 181.618C296.583 181.618 297.974 180.226 297.974 178.51C297.974 176.792 296.583 175.401 294.866 175.401C293.149 175.401 291.757 176.792 291.757 178.51C291.757 180.226 293.149 181.618 294.866 181.618Z" fill="#FCF095"/>
<path d="M314.826 181.776C316.543 181.776 317.934 180.384 317.934 178.667C317.934 176.95 316.543 175.558 314.826 175.558C313.109 175.558 311.717 176.95 311.717 178.667C311.717 180.384 313.109 181.776 314.826 181.776Z" fill="#FCF095"/>
<path d="M246.357 183.998L245.143 183.328L245.975 181.819L247.188 182.489C247.599 182.716 248.084 182.77 248.535 182.64C248.987 182.51 249.368 182.206 249.595 181.795L255.663 170.799L256.451 171.847C256.585 172.024 259.737 176.224 258.358 181.484L256.691 181.043C257.252 178.694 256.936 176.221 255.801 174.089L251.073 182.627C250.625 183.429 249.878 184.022 248.996 184.279C248.114 184.536 247.166 184.435 246.357 183.998Z" fill="#FCF095"/>
<path d="M244.764 183.998C245.795 183.998 246.631 183.162 246.631 182.131C246.631 181.099 245.795 180.263 244.764 180.263C243.732 180.263 242.896 181.099 242.896 182.131C242.896 183.162 243.732 183.998 244.764 183.998Z" fill="#FCF095"/>
<g opacity="0.56">
<path opacity="0.56" d="M213.457 192.166L211.806 192.954L210.557 190.302C209.766 190.741 208.892 191.009 207.992 191.09C207.238 191.156 206.48 191.033 205.785 190.731C205.091 190.43 204.483 189.96 204.017 189.364C203.185 188.348 202.661 187 202.417 185.227C201.936 181.768 202.63 178.344 203.544 175.417L202.516 173.218C202.216 172.588 201.728 171.532 202.122 170.46C202.271 170.11 202.503 169.801 202.798 169.56C203.093 169.319 203.442 169.152 203.815 169.075C204.188 168.998 204.574 169.011 204.941 169.115C205.307 169.219 205.643 169.411 205.92 169.672C207.102 170.925 206.42 172.773 206.125 173.561C205.924 174.109 205.731 174.688 205.518 175.291L208.359 181.327C209.935 180.22 212.133 180.57 213.5 182.138C214.753 183.572 214.82 185.55 213.682 187.426C213.256 188.118 212.724 188.739 212.106 189.266L213.457 192.166ZM204.734 177.934C204.127 180.226 203.954 182.612 204.226 184.967C204.423 186.39 204.817 187.445 205.431 188.194C205.714 188.561 206.086 188.85 206.511 189.035C206.936 189.221 207.4 189.296 207.862 189.254C208.537 189.189 209.191 188.982 209.781 188.647L208.173 185.231C208.142 185.397 208.114 185.57 208.095 185.747L206.278 185.535C206.383 184.602 206.649 183.696 207.066 182.855L204.734 177.934ZM209.151 183.021L211.27 187.544C211.59 187.226 211.871 186.87 212.106 186.484C212.444 185.929 213.126 184.514 212.106 183.332C211.463 182.599 210.305 182.15 209.387 182.82C209.302 182.879 209.223 182.947 209.151 183.021ZM204.029 170.894C203.985 170.91 203.945 170.935 203.912 170.966C203.878 170.998 203.85 171.037 203.832 171.079C203.709 171.41 203.942 171.953 204.17 172.438L204.399 172.927C204.647 172.253 204.939 171.311 204.58 170.933C204.525 170.891 204.46 170.862 204.392 170.848C204.324 170.834 204.254 170.836 204.186 170.854C204.131 170.86 204.076 170.873 204.025 170.894H204.029Z" fill="#FCF095"/>
</g>
<path d="M287.302 143.077L285.332 141.639L287.629 138.487C286.617 137.837 285.751 136.984 285.087 135.981C284.53 135.142 284.191 134.177 284.101 133.174C284.011 132.171 284.173 131.161 284.571 130.237C285.229 128.617 286.478 127.144 288.385 125.733C292.124 122.975 296.569 121.6 300.572 120.8L302.471 118.208C303.022 117.455 303.94 116.202 305.441 115.974C305.948 115.92 306.461 115.99 306.934 116.179C307.407 116.368 307.827 116.67 308.158 117.058C308.488 117.447 308.718 117.91 308.828 118.408C308.939 118.905 308.926 119.422 308.79 119.914C308.085 122.097 305.485 122.471 304.378 122.632C303.59 122.743 302.802 122.869 301.97 123.026L296.722 130.193C299.015 131.328 300.012 134.133 299.051 136.718C298.168 139.082 295.899 140.437 292.979 140.295C291.9 140.237 290.836 140.009 289.827 139.622L287.302 143.077ZM298.381 123.818C295.438 124.606 292.424 125.788 289.839 127.703C288.302 128.838 287.321 129.969 286.837 131.167C286.587 131.73 286.484 132.349 286.537 132.963C286.591 133.578 286.8 134.169 287.144 134.681C287.647 135.429 288.304 136.062 289.071 136.537L292.041 132.482C291.829 132.553 291.612 132.632 291.391 132.719L290.485 130.461C291.637 129.99 292.862 129.723 294.106 129.673L298.381 123.818ZM295.249 132.218L291.336 137.565C291.912 137.733 292.506 137.835 293.105 137.868C293.972 137.908 296.064 137.798 296.777 135.875C297.226 134.661 296.994 133.03 295.643 132.368C295.515 132.308 295.383 132.258 295.249 132.218ZM306.162 118.503C306.066 118.425 305.944 118.384 305.82 118.389C305.355 118.46 304.866 119.079 304.445 119.654L304.023 120.233C304.969 120.099 306.253 119.839 306.47 119.177C306.484 119.082 306.475 118.984 306.445 118.893C306.415 118.801 306.364 118.718 306.296 118.649C306.257 118.596 306.212 118.547 306.162 118.503Z" fill="#FCF095"/>
</svg>
